<svg width="36" height="36" viewBox="0 0 36 36" fill="none" xmlns="http://www.w3.org/2000/svg">
<g clip-path="url(#clip0_67_127)">
<path d="M26.1372 18.0557C26.1372 13.2921 22.2993 9.43066 17.5658 9.43066C12.83 9.43174 8.99219 13.2921 8.99219 18.0567C8.99219 22.3607 12.1272 25.9285 16.2243 26.5757V20.5489H14.0493V18.0567H16.2265V16.1549C16.2265 13.9939 17.5068 12.8003 19.4643 12.8003C20.4029 12.8003 21.3833 12.9685 21.3833 12.9685V15.0899H20.3022C19.2383 15.0899 18.9061 15.7553 18.9061 16.4378V18.0557H21.2825L20.9033 20.5478H18.905V26.5746C23.0022 25.9274 26.1372 22.3596 26.1372 18.0557Z" fill="white"/>
</g>
<defs>
<clipPath id="clip0_67_127">
<rect width="17.1429" height="17.1429" fill="white" transform="translate(9 9.42871)"/>
</clipPath>
</defs>
</svg>
