<svg width="37" height="36" viewBox="0 0 37 36" fill="none" xmlns="http://www.w3.org/2000/svg">
<path d="M18.857 13.8541C16.6402 13.8541 14.8512 15.6432 14.8512 17.86C14.8512 20.0768 16.6402 21.8658 18.857 21.8658C21.0738 21.8658 22.8629 20.0768 22.8629 17.86C22.8629 15.6432 21.0738 13.8541 18.857 13.8541ZM18.857 20.4635C17.4234 20.4635 16.2535 19.2936 16.2535 17.86C16.2535 16.4264 17.4234 15.2564 18.857 15.2564C20.2906 15.2564 21.4605 16.4264 21.4605 17.86C21.4605 19.2936 20.2906 20.4635 18.857 20.4635ZM23.0269 12.7564C22.5094 12.7564 22.0914 13.1744 22.0914 13.692C22.0914 14.2096 22.5094 14.6275 23.0269 14.6275C23.5445 14.6275 23.9625 14.2115 23.9625 13.692C23.9626 13.5691 23.9386 13.4474 23.8916 13.3338C23.8446 13.2202 23.7757 13.117 23.6888 13.0301C23.6019 12.9432 23.4987 12.8743 23.3851 12.8273C23.2716 12.7804 23.1498 12.7563 23.0269 12.7564ZM26.6656 17.86C26.6656 16.7818 26.6754 15.7135 26.6148 14.6373C26.5543 13.3873 26.2691 12.2779 25.3551 11.3639C24.4391 10.4478 23.3316 10.1646 22.0816 10.1041C21.0035 10.0435 19.9351 10.0533 18.859 10.0533C17.7809 10.0533 16.7125 10.0435 15.6363 10.1041C14.3863 10.1646 13.2769 10.4498 12.3629 11.3639C11.4469 12.2799 11.1637 13.3873 11.1031 14.6373C11.0426 15.7154 11.0523 16.7838 11.0523 17.86C11.0523 18.9361 11.0426 20.0064 11.1031 21.0826C11.1637 22.3326 11.4488 23.442 12.3629 24.3561C13.2789 25.2721 14.3863 25.5553 15.6363 25.6158C16.7144 25.6764 17.7828 25.6666 18.859 25.6666C19.9371 25.6666 21.0055 25.6764 22.0816 25.6158C23.3316 25.5553 24.441 25.2701 25.3551 24.3561C26.2711 23.44 26.5543 22.3326 26.6148 21.0826C26.6773 20.0064 26.6656 18.9381 26.6656 17.86ZM24.9469 22.4654C24.8043 22.8209 24.6324 23.0865 24.357 23.36C24.0816 23.6353 23.818 23.8072 23.4625 23.9498C22.4352 24.358 19.9957 24.2662 18.857 24.2662C17.7184 24.2662 15.2769 24.358 14.2496 23.9518C13.8941 23.8092 13.6285 23.6373 13.3551 23.3619C13.0797 23.0865 12.9078 22.8228 12.7652 22.4674C12.359 21.4381 12.4508 18.9986 12.4508 17.86C12.4508 16.7213 12.359 14.2799 12.7652 13.2525C12.9078 12.8971 13.0797 12.6314 13.3551 12.358C13.6305 12.0846 13.8941 11.9107 14.2496 11.7682C15.2769 11.3619 17.7184 11.4537 18.857 11.4537C19.9957 11.4537 22.4371 11.3619 23.4644 11.7682C23.8199 11.9107 24.0855 12.0826 24.359 12.358C24.6344 12.6334 24.8062 12.8971 24.9488 13.2525C25.3551 14.2799 25.2633 16.7213 25.2633 17.86C25.2633 18.9986 25.3551 21.4381 24.9469 22.4654Z" fill="white"/>
</svg>
