<svg width="37" height="36" viewBox="0 0 37 36" fill="none" xmlns="http://www.w3.org/2000/svg">
<g clip-path="url(#clip0_67_7)">
<path d="M25.0366 24.6105H22.4981V20.6327C22.4981 19.6841 22.4788 18.4634 21.1752 18.4634C19.8516 18.4634 19.6495 19.4955 19.6495 20.5627V24.6105H17.1109V16.4305H19.5495V17.5455H19.5824C19.9231 16.9027 20.7516 16.2241 21.9895 16.2241C24.5616 16.2241 25.0374 17.917 25.0374 20.1205L25.0366 24.6105ZM14.2438 15.3112C14.0501 15.3115 13.8582 15.2736 13.6792 15.1995C13.5002 15.1255 13.3376 15.0168 13.2007 14.8798C13.0638 14.7427 12.9553 14.58 12.8814 14.4009C12.8075 14.2218 12.7697 14.03 12.7702 13.8362C12.7704 13.5447 12.857 13.2597 13.0191 13.0173C13.1812 12.7749 13.4115 12.5861 13.681 12.4746C13.9504 12.3632 14.2469 12.3341 14.5328 12.3911C14.8188 12.4482 15.0814 12.5887 15.2875 12.795C15.4936 13.0013 15.6338 13.264 15.6906 13.55C15.7473 13.836 15.718 14.1325 15.6063 14.4018C15.4946 14.6711 15.3055 14.9013 15.063 15.0632C14.8204 15.2251 14.5354 15.3114 14.2438 15.3112ZM15.5166 24.6105H12.9709V16.4305H15.5166V24.6105ZM26.3066 10.002H11.6966C10.9974 10.002 10.4316 10.5548 10.4316 11.237V25.9098C10.4316 26.5927 10.9974 27.1448 11.6966 27.1448H26.3045C27.0031 27.1448 27.5745 26.5927 27.5745 25.9098V11.237C27.5745 10.5548 27.0031 10.002 26.3045 10.002H26.3066Z" fill="white"/>
</g>
<defs>
<clipPath id="clip0_67_7">
<rect width="17.1429" height="17.1429" fill="white" transform="translate(10.4287 10)"/>
</clipPath>
</defs>
</svg>
